<?xml version="1.0" encoding="iso-8859-1"?>
<!-- Uploaded to: SVG Repo, www.svgrepo.com, Generator: SVG Repo Mixer Tools -->
<svg version="1.1" id="Layer_1" xmlns="http://www.w3.org/2000/svg" xmlns:xlink="http://www.w3.org/1999/xlink" 
	 viewBox="0 0 508 508" xml:space="preserve">
<circle style="fill:#FF7058;" cx="254" cy="254" r="254"/>
<path style="fill:#F1543F;" d="M74.5,433.7c46,45.9,109.4,74.3,179.5,74.3s133.6-28.4,179.5-74.3H74.5z"/>
<path style="fill:#FFD05B;" d="M383.8,325.1H124.4V89.3c0-2.3,1.9-4.2,4.2-4.2h250.9c2.3,0,4.2,1.9,4.2,4.2v235.8H383.8z"/>
<path style="fill:#F9B54C;" d="M285,145.4h-61.9c-4.6,0-8.3-3.7-8.3-8.3l0,0c0-4.6,3.7-8.3,8.3-8.3H285c4.6,0,8.3,3.7,8.3,8.3l0,0
	C293.3,141.7,289.6,145.4,285,145.4z"/>
<rect x="222.8" y="85.1" style="fill:#E6E9EE;" width="62.5" height="26.1"/>
<rect x="251.9" y="85.1" style="fill:#CED5E0;" width="4.3" height="26.1"/>
<rect x="355" y="143.6" style="fill:#E6E9EE;" width="7" height="106.2"/>
<rect x="352.4" y="201.4" style="fill:#FFFFFF;" width="12.1" height="106.2"/>
<rect x="146.2" y="143.6" style="fill:#E6E9EE;" width="7" height="106.2"/>
<rect x="143.7" y="201.4" style="fill:#FFFFFF;" width="12.1" height="106.2"/>
<g>
	<path style="fill:#324A5E;" d="M384.5,377H336v54.6c0,1.2,0.9,2.1,2.1,2.1h44.4c1.2,0,2.1-0.9,2.1-2.1V377H384.5z"/>
	<path style="fill:#324A5E;" d="M176.2,377h-48.5v54.6c0,1.2,0.9,2.1,2.1,2.1h44.4c1.2,0,2.1-0.9,2.1-2.1V377H176.2z"/>
</g>
<g>
	<path style="fill:#54C0EB;" d="M340.1,265.5h-168l13.4-91.7c0.7-5,5.1-8.8,10.2-8.8h120.8c5.1,0,9.4,3.7,10.2,8.8L340.1,265.5z"/>
	<path style="fill:#54C0EB;" d="M394.6,318.8c8.6,21.3,6.7,42-21.4,53.4c-28.1,11.3-71.9,9-80.5-12.3s21.3-53.4,49.5-64.7
		C370.3,283.9,386,297.5,394.6,318.8z"/>
	<path style="fill:#54C0EB;" d="M118.5,318.8c-8.6,21.3-6.7,42,21.4,53.4c28.1,11.3,71.9,9,80.5-12.3s-21.3-53.4-49.5-64.7
		C142.8,283.9,127,297.5,118.5,318.8z"/>
</g>
<path style="fill:#84DBFF;" d="M344.9,287.6c0,24.7-6.8,51.6-18.3,74.7c-20.4,5.9-44.7,9.4-70.6,9.4s-50.1-3.4-70.5-9.4
	c-11.5-23.1-18.3-50-18.3-74.7c0-7.6,0.6-14.7,1.9-21.1c0.6-2.9,2.9-5.4,6.1-6.6c22.4-8,50.4-12.7,80.9-12.7
	c30.4,0,58.5,4.7,80.9,12.7c3.2,1.1,5.5,3.6,6.1,6.5C344.3,272.9,344.9,280,344.9,287.6z"/>
<path style="fill:#E6E9EE;" d="M402.4,396.7H109.8c-1.3,0-2.3-1-2.3-2.3V353c0-1.3,1-2.3,2.3-2.3h292.5c1.3,0,2.3,1,2.3,2.3v41.4
	C404.7,395.6,403.6,396.7,402.4,396.7z"/>
<path style="fill:#FFFFFF;" d="M386.1,319.7c0,0,4.8,15.9-1.4,25h-43C341.6,344.8,334.9,319.9,386.1,319.7z"/>
<g>
	<circle style="fill:#E6E9EE;" cx="374.2" cy="333.7" r="9.1"/>
	<circle style="fill:#E6E9EE;" cx="356" cy="336.5" r="6.2"/>
</g>
<path style="fill:#FFFFFF;" d="M126.1,319.7c0,0-4.8,15.9,1.4,25h43C170.5,344.8,177.2,319.9,126.1,319.7z"/>
<g>
	<circle style="fill:#E6E9EE;" cx="137.9" cy="333.7" r="9.1"/>
	<circle style="fill:#E6E9EE;" cx="156.2" cy="336.5" r="6.2"/>
</g>
<g>
	<path style="fill:#324A5E;" d="M252.9,220.3h-60.1c-0.6,0-1.1-0.5-1.1-1.1v-35.7c0-0.6,0.5-1.1,1.1-1.1h60.1c0.6,0,1.1,0.5,1.1,1.1
		v35.7C254.1,219.8,253.6,220.3,252.9,220.3z"/>
	<path style="fill:#324A5E;" d="M319.3,220.3h-60.1c-0.6,0-1.1-0.5-1.1-1.1v-35.7c0-0.6,0.5-1.1,1.1-1.1h60.1c0.6,0,1.1,0.5,1.1,1.1
		v35.7C320.5,219.8,320,220.3,319.3,220.3z"/>
</g>
<g>
	<path style="fill:#2B3B4E;" d="M315.9,182.4h-19.1l11.7,37.9h7.4c2.5,0,4.5-2,4.5-4.5v-28.9C320.5,184.4,318.4,182.4,315.9,182.4z"
		/>
	<path style="fill:#2B3B4E;" d="M249.5,182.4h-19.1l11.7,37.9h7.4c2.5,0,4.5-2,4.5-4.5v-28.9C254.1,184.4,252,182.4,249.5,182.4z"/>
</g>
<g>
	<path style="fill:#54C0EB;" d="M191.2,329c2.3,1.6,5.3,2.8,8.7,3.2l53.4,6.9c1.8,0.2,3.7,0.2,5.5,0l53.4-6.9
		c3.4-0.4,6.4-1.6,8.7-3.2H191.2z"/>
	<path style="fill:#54C0EB;" d="M186.9,314.3c2.5,1.8,5.7,3.2,9.3,3.7l56.9,7.8c1.9,0.3,3.9,0.3,5.9,0l56.9-7.8
		c3.6-0.5,6.9-1.9,9.3-3.7H186.9z"/>
	<path style="fill:#54C0EB;" d="M181.9,297.4c2.7,2.1,6.2,3.6,10.1,4.2l61,8.9c2.1,0.3,4.2,0.3,6.3,0l61-8.9
		c3.9-0.6,7.4-2.1,10.1-4.2H181.9z"/>
	<path style="fill:#54C0EB;" d="M176.2,278c2.9,2.4,6.7,4.2,10.9,4.9l65.6,10.3c2.2,0.3,4.5,0.3,6.7,0l65.6-10.3
		c4.2-0.7,8-2.5,10.9-4.9H176.2z"/>
</g>
</svg>